<svg width="24" height="24" fill="none" xmlns="http://www.w3.org/2000/svg"><path fill-rule="evenodd" clip-rule="evenodd" d="M8.879 1.879A3 3 0 0111 1h2a3 3 0 013 3v4h4a3 3 0 013 3v2a3 3 0 01-3 3h-4v4a3 3 0 01-3 3h-2c-1.652 0-3-1.348-3-3v-4H4c-1.652 0-3-1.348-3-3v-2a3 3 0 013-3h4V4a3 3 0 01.879-2.121zM11 3a1 1 0 00-1 1v5a1 1 0 01-1 1H4a1 1 0 00-1 1v2c0 .548.452 1 1 1h5a1 1 0 011 1v5c0 .548.452 1 1 1h2a1 1 0 001-1v-5a1 1 0 011-1h5a1 1 0 001-1v-2a1 1 0 00-1-1h-5a1 1 0 01-1-1V4a1 1 0 00-1-1h-2z" fill="#fff"/></svg>