<svg width="22" height="22" fill="none" xmlns="http://www.w3.org/2000/svg"><path fill-rule="evenodd" clip-rule="evenodd" d="M7.879.879A3 3 0 0110 0h2a3 3 0 013 3v4h4a3 3 0 013 3v2a3 3 0 01-3 3h-4v4a3 3 0 01-3 3h-2c-1.652 0-3-1.348-3-3v-4H3c-1.652 0-3-1.348-3-3v-2a3 3 0 013-3h4V3A3 3 0 017.879.879zM10 2a1 1 0 00-1 1v5a1 1 0 01-1 1H3a1 1 0 00-1 1v2c0 .548.452 1 1 1h5a1 1 0 011 1v5c0 .548.452 1 1 1h2a1 1 0 001-1v-5a1 1 0 011-1h5a1 1 0 001-1v-2a1 1 0 00-1-1h-5a1 1 0 01-1-1V3a1 1 0 00-1-1h-2z" fill="#000"/></svg>