<svg width="36" height="36" fill="none" xmlns="http://www.w3.org/2000/svg"><path d="M0 17.28C0 9.134 0 5.061 2.53 2.53 5.062 0 9.135 0 17.28 0h1.44c8.146 0 12.219 0 14.75 2.53C36 5.062 36 9.135 36 17.28v1.44c0 8.146 0 12.219-2.53 14.75C30.938 36 26.865 36 18.72 36h-1.44c-8.146 0-12.219 0-14.75-2.53C0 30.938 0 26.865 0 18.72v-1.44z" fill="url(#paint0_linear_11_55)"/><path d="M16.478 23.725c-2.31-.221-4.392-.742-6.175-2.02-.22-.158-.45-.312-.651-.49-.78-.686-.86-1.472-.242-2.283.529-.693 1.415-.879 2.337-.48.178.077.348.173.511.277 3.323 2.091 7.887 2.149 11.223.094.33-.233.683-.422 1.093-.518.795-.188 1.538.08 1.965.718.488.729.482 1.44-.12 2.006-.922.867-2.031 1.494-3.264 1.933-1.165.413-2.441.622-3.705.76.19.19.28.284.4.393 1.715 1.58 3.438 3.152 5.148 4.736.583.54.704 1.209.384 1.837a2.058 2.058 0 01-1.906 1.089c-.488-.031-.868-.254-1.206-.566-1.294-1.193-2.613-2.364-3.881-3.58-.37-.354-.547-.287-.873.02a250.01 250.01 0 01-3.957 3.64c-.598.54-1.31.637-2.003.329-.737-.327-1.206-1.017-1.17-1.71.026-.468.277-.826.628-1.147 1.698-1.553 3.39-3.11 5.084-4.665.112-.104.217-.213.38-.373z" fill="#fff"/><path d="M17.885 18.315c-4.12-.013-7.499-3.142-7.475-6.923.024-3.822 3.405-6.903 7.566-6.892 4.169.01 7.515 3.135 7.494 6.997-.021 3.773-3.423 6.831-7.585 6.818zm3.744-6.914c-.007-1.877-1.639-3.371-3.683-3.373-2.063-.002-3.71 1.52-3.693 3.414.015 1.87 1.661 3.354 3.712 3.347 2.044-.007 3.671-1.51 3.665-3.388z" fill="#fff"/><defs><linearGradient id="paint0_linear_11_55" x1="18" y1="0" x2="18" y2="36" gradientUnits="userSpaceOnUse"><stop stop-color="#E47E24"/><stop offset="1" stop-color="#C86F20"/></linearGradient></defs></svg>