<svg width="24" height="24" fill="none" xmlns="http://www.w3.org/2000/svg"><path d="M0 11.52c0-5.43 0-8.146 1.687-9.833C3.374 0 6.09 0 11.52 0h.96c5.43 0 8.146 0 9.833 1.687C24 3.374 24 6.09 24 11.52v.96c0 5.43 0 8.146-1.687 9.833C20.626 24 17.911 24 12.48 24h-.96c-5.43 0-8.146 0-9.833-1.687C0 20.626 0 17.911 0 12.48v-.96z" fill="url(#paint0_linear_11_55)"/><path d="M10.985 15.816c-1.54-.147-2.928-.494-4.116-1.346-.148-.106-.3-.208-.434-.326-.52-.458-.573-.982-.161-1.522.352-.463.943-.586 1.557-.32.12.05.233.115.341.184 2.215 1.394 5.258 1.433 7.482.062a2.1 2.1 0 01.728-.345c.531-.125 1.026.054 1.31.48.326.485.322.96-.079 1.336-.615.578-1.354.997-2.176 1.289-.777.276-1.628.415-2.47.507.127.127.187.189.266.262 1.144 1.053 2.293 2.101 3.433 3.157.388.36.469.806.255 1.224a1.372 1.372 0 01-1.27.726c-.325-.02-.579-.169-.804-.376-.863-.796-1.742-1.577-2.588-2.388-.246-.235-.364-.19-.582.014-.868.819-1.75 1.625-2.638 2.427-.398.36-.873.425-1.335.219-.491-.218-.804-.678-.78-1.14.017-.312.185-.55.419-.764 1.131-1.036 2.26-2.074 3.39-3.11.074-.07.144-.143.252-.25z" fill="#fff"/><path d="M11.923 12.21c-2.746-.009-4.999-2.095-4.983-4.615C6.956 5.047 9.21 2.993 11.984 3c2.78.007 5.01 2.09 4.996 4.665-.014 2.515-2.282 4.554-5.057 4.545zM14.42 7.6c-.005-1.25-1.093-2.247-2.456-2.248-1.375-.001-2.473 1.013-2.462 2.276.01 1.247 1.107 2.236 2.474 2.231 1.363-.004 2.448-1.007 2.444-2.258z" fill="#fff"/><defs><linearGradient id="paint0_linear_11_55" x1="12" y1="0" x2="12" y2="24" gradientUnits="userSpaceOnUse"><stop stop-color="#E47E24"/><stop offset="1" stop-color="#C86F20"/></linearGradient></defs></svg>