<svg width="26" height="26" fill="none" xmlns="http://www.w3.org/2000/svg"><path fill-rule="evenodd" clip-rule="evenodd" d="M13 25c6.627 0 12-5.373 12-12S19.627 1 13 1 1 6.373 1 13c0 2.537.787 4.89 2.13 6.828.167.24.233.537.17.822l-.317 1.426a1 1 0 001.293 1.165l1.157-.386a1.05 1.05 0 01.913.133A11.944 11.944 0 0013 25z" fill="#FFCF00"/><path d="M5.433 22.855l-.158-.474.158.474zm.913.133l-.277.416.277-.416zm-2.07.253l-.159-.474.159.474zM3.13 19.828l.411-.285-.41.285zM24.5 13c0 6.351-5.149 11.5-11.5 11.5v1c6.904 0 12.5-5.596 12.5-12.5h-1zM13 1.5c6.351 0 11.5 5.149 11.5 11.5h1C25.5 6.096 19.904.5 13 .5v1zM1.5 13C1.5 6.649 6.649 1.5 13 1.5v-1C6.096.5.5 6.096.5 13h1zm2.041 6.543A11.445 11.445 0 011.5 13h-1c0 2.642.82 5.093 2.22 7.112l.821-.57zm-.07 2.641l.317-1.425-.976-.217-.317 1.425.976.217zm1.804.197l-1.158.386.317.949 1.158-.386-.317-.949zM13 24.5c-2.36 0-4.551-.71-6.376-1.928l-.555.832A12.444 12.444 0 0013 25.5v-1zm-7.408-1.17a.55.55 0 01.477.074l.555-.832a1.55 1.55 0 00-1.349-.19l.317.948zm-3.097-1.363a1.5 1.5 0 001.939 1.749l-.317-.949a.5.5 0 01-.646-.583l-.976-.217zm.224-1.855a.55.55 0 01.093.43l.976.217a1.548 1.548 0 00-.247-1.216l-.822.57z" fill="#000"/><g filter="url(#filter0_f_30_230)"><ellipse cx="4.806" cy="16.814" rx="1.4" ry=".6" transform="rotate(-.585 4.806 16.814)" fill="#FF8B72"/></g><g filter="url(#filter1_f_30_230)"><ellipse cx="20.806" cy="16.814" rx="1.4" ry=".6" transform="rotate(-.585 20.806 16.814)" fill="#FF8B72"/></g><path d="M8.2 8.6c-.267.533-1.2 1.68-2.8 2m12.4-2c.267.533 1.2 1.68 2.8 2" stroke="#000" stroke-linecap="round"/><path d="M5.4 13.4c.933 1.067 3.28 2.48 5.2-.4m10 .4c-.933 1.067-3.28 2.48-5.2-.4M11 19.8h4.4" stroke="#000" stroke-width="1.5" stroke-linecap="round"/><defs><filter id="filter0_f_30_230" x="2.406" y="15.214" width="4.8" height="3.2" filterUnits="userSpaceOnUse" color-interpolation-filters="sRGB"><feFlood flood-opacity="0" result="BackgroundImageFix"/><feBlend in="SourceGraphic" in2="BackgroundImageFix" result="shape"/><feGaussianBlur stdDeviation=".5" result="effect1_foregroundBlur_30_230"/></filter><filter id="filter1_f_30_230" x="18.406" y="15.214" width="4.8" height="3.2" filterUnits="userSpaceOnUse" color-interpolation-filters="sRGB"><feFlood flood-opacity="0" result="BackgroundImageFix"/><feBlend in="SourceGraphic" in2="BackgroundImageFix" result="shape"/><feGaussianBlur stdDeviation=".5" result="effect1_foregroundBlur_30_230"/></filter></defs></svg>