<svg width="26" height="26" fill="none" xmlns="http://www.w3.org/2000/svg"><path fill-rule="evenodd" clip-rule="evenodd" d="M13 25c6.627 0 12-5.373 12-12S19.627 1 13 1 1 6.373 1 13c0 2.537.787 4.89 2.13 6.828.167.24.233.537.17.822l-.317 1.426a1 1 0 001.293 1.165l1.157-.386a1.05 1.05 0 01.913.133A11.944 11.944 0 0013 25z" fill="#FFCF00"/><path d="M5.433 22.855l-.158-.474.158.474zm.913.133l-.277.416.277-.416zm-2.07.253l-.159-.474.159.474zM3.13 19.828l.411-.285-.41.285zM24.5 13c0 6.351-5.149 11.5-11.5 11.5v1c6.904 0 12.5-5.596 12.5-12.5h-1zM13 1.5c6.351 0 11.5 5.149 11.5 11.5h1C25.5 6.096 19.904.5 13 .5v1zM1.5 13C1.5 6.649 6.649 1.5 13 1.5v-1C6.096.5.5 6.096.5 13h1zm2.041 6.543A11.445 11.445 0 011.5 13h-1c0 2.642.82 5.093 2.22 7.112l.821-.57zm-.07 2.641l.317-1.425-.976-.217-.317 1.425.976.217zm1.804.197l-1.158.386.317.949 1.158-.386-.317-.949zM13 24.5c-2.36 0-4.551-.71-6.376-1.928l-.555.832A12.444 12.444 0 0013 25.5v-1zm-7.408-1.17a.55.55 0 01.477.074l.555-.832a1.55 1.55 0 00-1.349-.19l.317.948zm-3.097-1.363a1.5 1.5 0 001.939 1.749l-.317-.949a.5.5 0 01-.646-.583l-.976-.217zm.224-1.855a.55.55 0 01.093.43l.976.217a1.548 1.548 0 00-.247-1.216l-.822.57z" fill="#000"/><mask id="a" style="mask-type:alpha" maskUnits="userSpaceOnUse" x="1" y="1" width="24" height="24"><path d="M24.6 13c0 6.407-5.194 11.6-11.6 11.6S1.4 19.406 1.4 13C1.4 6.593 6.594 1.4 13 1.4c6.407 0 11.6 5.193 11.6 11.6z" fill="#C4C4C4"/></mask><g mask="url(#a)" fill="#95F6FC" stroke="#000" stroke-width=".5"><path d="M6.05 24.75V13.62l2.7-.337V24.75h-2.7zm13.9-11.13v11.13h-2.7V13.283l2.7.338z"/></g><path d="M15.623 6.6c.3.596 1.306 1.779 2.938 1.746M9.75 6.6c-.3.596-1.307 1.779-2.938 1.746" stroke="#000" stroke-linecap="round"/><path d="M15.405 11.929c.42-1.906 4.156-2.645 4.991-1.753.083.089.019.218-.097.252-.945.283-1.974.882-2.113 1.34-.12.395 1.32 1.006 2.408 1.553.156.08.134.298-.036.337-2.658.613-5.287-1.123-5.153-1.73zm-4.81 0c-.42-1.906-4.156-2.645-4.991-1.753-.083.089-.019.218.097.252.945.283 1.974.882 2.113 1.34.12.395-1.32 1.006-2.408 1.553-.156.08-.134.298.036.337 2.658.613 5.287-1.123 5.153-1.73z" fill="#000"/><ellipse cx="13" cy="19.4" rx="2.4" ry="3.2" fill="#000"/><path d="M13 16.6c-.96 0-1.6.8-1.6 1.2 0 .4.8.4 1.6.4s1.6 0 1.6-.4-.64-1.2-1.6-1.2z" fill="#fff"/><path d="M13 22.2c-.96 0-2-1.2-2-2s1.2-.8 2-.8 2 0 2 .8-1.04 2-2 2z" fill="#D50B00"/></svg>