<svg width="26" height="26" fill="none" xmlns="http://www.w3.org/2000/svg"><path fill-rule="evenodd" clip-rule="evenodd" d="M13 25c6.627 0 12-5.373 12-12S19.627 1 13 1 1 6.373 1 13c0 2.537.787 4.89 2.13 6.828.167.24.233.537.17.822l-.317 1.426a1 1 0 001.293 1.165l1.157-.386a1.05 1.05 0 01.913.133A11.944 11.944 0 0013 25z" fill="#FFCF00"/><path d="M5.433 22.855l-.158-.474.158.474zm.913.133l.278-.416-.278.416zm-3.363-.912l-.488-.109.488.109zm.147-2.248l-.41.284.41-.284zm.17.822l-.488-.108.488.108zM24.5 13c0 6.351-5.149 11.5-11.5 11.5v1c6.904 0 12.5-5.596 12.5-12.5h-1zM13 1.5c6.351 0 11.5 5.149 11.5 11.5h1C25.5 6.096 19.904.5 13 .5v1zM1.5 13C1.5 6.649 6.649 1.5 13 1.5v-1C6.096.5.5 6.096.5 13h1zm2.041 6.543A11.445 11.445 0 011.5 13h-1c0 2.642.82 5.093 2.22 7.112l.821-.57zm-.07 2.641l.317-1.425-.976-.217-.317 1.425.976.217zm1.804.197l-1.158.386.317.949 1.158-.386-.317-.949zM13 24.5c-2.36 0-4.551-.71-6.376-1.928l-.555.832A12.444 12.444 0 0013 25.5v-1zm-7.408-1.17a.55.55 0 01.477.074l.555-.832a1.55 1.55 0 00-1.349-.19l.317.948zm-3.097-1.363a1.5 1.5 0 001.939 1.749l-.317-.949a.5.5 0 01-.646-.583l-.976-.217zm.224-1.855a.55.55 0 01.093.43l.976.217a1.548 1.548 0 00-.247-1.216l-.822.57z" fill="#000"/><path d="M12.803 14.2c-4.391 0-7.898 4.308-6.8 5.2 1.098.892 3.686-.8 6.8-.8s5.702 1.692 6.8.8c1.098-.892-2.409-5.2-6.8-5.2z" fill="#000"/><path d="M13 14.6c-2.083 0-3.476.832-4.203 1.423-.192.157-.038.41.202.346.904-.236 2.452-.569 4.001-.569 1.549 0 3.097.333 4 .57.24.062.395-.19.203-.347-.727-.59-2.12-1.423-4.203-1.423z" fill="#fff"/><path d="M13 17c-1.6 0-2.473.677-2.887 1.15-.141.162.011.366.221.323A13.356 13.356 0 0113 18.2c1.14 0 2.103.155 2.666.273.21.043.363-.161.221-.322C15.473 17.677 14.601 17 13 17z" fill="#D50B00"/><path d="M9.486 5.293c-.191.639-.976 1.98-2.588 2.232m8.938-2.232c.191.639.977 1.98 2.589 2.232" stroke="#000" stroke-linecap="round"/><path d="M9.8 9c-.4 1.2-1.76 3.36-4 2.4M15.4 9c.4 1.2 1.76 3.36 4 2.4" stroke="#000" stroke-width="2" stroke-linecap="round"/></svg>