<svg width="36" height="36" fill="none" xmlns="http://www.w3.org/2000/svg"><path d="M0 17.28C0 9.134 0 5.061 2.53 2.53 5.062 0 9.135 0 17.28 0h1.44c8.146 0 12.219 0 14.75 2.53C36 5.062 36 9.135 36 17.28v1.44c0 8.146 0 12.219-2.53 14.75C30.938 36 26.865 36 18.72 36h-1.44c-8.146 0-12.219 0-14.75-2.53C0 30.938 0 26.865 0 18.72v-1.44z" fill="url(#paint0_linear_11_17)"/><path d="M19.093 25.92C10.73 25.92 5.96 20.244 5.76 10.8h4.19c.137 6.932 3.226 9.868 5.672 10.473V10.8h3.945v5.978c2.416-.257 4.954-2.981 5.81-5.978h3.945c-.657 3.693-3.41 6.417-5.366 7.537 1.957.908 5.091 3.285 6.284 7.583h-4.343c-.932-2.876-3.256-5.1-6.33-5.403v5.403h-.474z" fill="#fff"/><defs><linearGradient id="paint0_linear_11_17" x1="18" y1="0" x2="18" y2="36" gradientUnits="userSpaceOnUse"><stop stop-color="#07F"/><stop offset="1" stop-color="#005FCD"/></linearGradient></defs></svg>