<svg width="24" height="24" fill="none" xmlns="http://www.w3.org/2000/svg"><path d="M0 11.52c0-5.43 0-8.146 1.687-9.833C3.374 0 6.09 0 11.52 0h.96c5.43 0 8.146 0 9.833 1.687C24 3.374 24 6.09 24 11.52v.96c0 5.43 0 8.146-1.687 9.833C20.626 24 17.911 24 12.48 24h-.96c-5.43 0-8.146 0-9.833-1.687C0 20.626 0 17.911 0 12.48v-.96z" fill="url(#paint0_linear_11_17)"/><path d="M12.729 17.28c-5.576 0-8.756-3.784-8.889-10.08h2.793c.092 4.621 2.151 6.579 3.782 6.982V7.2h2.63v3.986c1.61-.172 3.303-1.988 3.873-3.986h2.63c-.438 2.462-2.273 4.278-3.578 5.025 1.305.605 3.395 2.19 4.19 5.055h-2.895c-.622-1.917-2.171-3.4-4.22-3.602v3.602h-.316z" fill="#fff"/><defs><linearGradient id="paint0_linear_11_17" x1="12" y1="0" x2="12" y2="24" gradientUnits="userSpaceOnUse"><stop stop-color="#07F"/><stop offset="1" stop-color="#005FCD"/></linearGradient></defs></svg>