<svg width="24" height="24" fill="none" xmlns="http://www.w3.org/2000/svg"><g clip-path="url(#clip0_11_30)"><path d="M0 11.52c0-5.43 0-8.146 1.687-9.833C3.374 0 6.09 0 11.52 0h.96c5.43 0 8.146 0 9.833 1.687C24 3.374 24 6.09 24 11.52v.96c0 5.43 0 8.146-1.687 9.833C20.626 24 17.91 24 12.48 24h-.96c-5.43 0-8.146 0-9.833-1.687C0 20.626 0 17.91 0 12.48v-.96z" fill="url(#paint0_linear_11_30)"/><path d="M8.832 16.79l.22.11a5.79 5.79 0 002.966.796c3.223 0 5.86-2.607 5.86-5.792a5.78 5.78 0 00-1.721-4.09 5.852 5.852 0 00-4.139-1.701c-3.222 0-5.86 2.606-5.822 5.827 0 1.086.33 2.136.878 3.04l.147.218-.586 2.136 2.197-.543z" fill="#31D652"/><path d="M16.78 7.235c-1.246-1.267-2.967-1.955-4.725-1.955-3.735 0-6.738 3.004-6.702 6.66 0 1.159.33 2.28.88 3.294l-.953 3.44 3.552-.906a6.6 6.6 0 003.186.796c3.7 0 6.702-3.004 6.702-6.66a6.53 6.53 0 00-1.94-4.67zm-4.725 10.207a5.489 5.489 0 01-2.82-.76l-.22-.108-2.124.543.55-2.064-.147-.217A5.44 5.44 0 019.09 7.271c2.636-1.593 6.042-.833 7.654 1.774 1.611 2.606.842 5.972-1.795 7.565a5.386 5.386 0 01-2.893.832zm3.223-4.018l-.403-.18s-.586-.254-.952-.435c-.037 0-.073-.036-.11-.036-.11 0-.183.036-.257.072 0 0-.036.037-.549.616a.202.202 0 01-.183.108h-.037a.279.279 0 01-.146-.072l-.183-.072c-.403-.182-.77-.399-1.062-.688-.073-.073-.183-.145-.257-.217-.256-.254-.512-.543-.695-.87l-.037-.072c-.037-.036-.037-.072-.073-.144 0-.073 0-.145.037-.181 0 0 .146-.181.256-.29.073-.072.11-.18.183-.253.073-.109.11-.254.073-.362-.036-.181-.476-1.159-.586-1.376a.424.424 0 00-.256-.18h-.403c-.073 0-.146.035-.22.035l-.036.037c-.074.036-.147.108-.22.144-.073.073-.11.145-.183.218a1.833 1.833 0 00-.403 1.122c0 .29.073.579.183.832l.037.109c.33.688.769 1.303 1.355 1.846l.146.145c.11.108.22.18.293.29a6.569 6.569 0 002.637 1.375c.11.036.256.036.366.072h.366c.184 0 .403-.072.55-.145.11-.072.183-.072.256-.144l.073-.073c.074-.072.147-.108.22-.18a.958.958 0 00.183-.218c.073-.145.11-.326.147-.507v-.253s-.037-.036-.11-.072z" fill="#fff"/></g><defs><linearGradient id="paint0_linear_11_30" x1="12" y1="0" x2="12" y2="24" gradientUnits="userSpaceOnUse"><stop stop-color="#42E760"/><stop offset=".766" stop-color="#29CB4A"/></linearGradient><clipPath id="clip0_11_30"><path fill="#fff" d="M0 0h24v24H0z"/></clipPath></defs></svg>