<svg width="36" height="36" fill="none" xmlns="http://www.w3.org/2000/svg"><g clip-path="url(#clip0_11_30)"><path d="M0 17.28C0 9.134 0 5.061 2.53 2.53 5.062 0 9.135 0 17.28 0h1.44c8.146 0 12.219 0 14.75 2.53C36 5.062 36 9.135 36 17.28v1.44c0 8.146 0 12.219-2.53 14.75C30.938 36 26.865 36 18.72 36h-1.44c-8.146 0-12.219 0-14.75-2.53C0 30.938 0 26.865 0 18.72v-1.44z" fill="url(#paint0_linear_11_30)"/><path d="M13.248 25.186l.33.163c1.373.815 2.912 1.195 4.45 1.195 4.834 0 8.789-3.91 8.789-8.688 0-2.28-.934-4.506-2.582-6.135a8.777 8.777 0 00-6.207-2.552c-4.834 0-8.79 3.91-8.735 8.742 0 1.628.495 3.203 1.319 4.56l.22.326-.88 3.204 3.296-.815z" fill="#31D652"/><path d="M25.169 10.852c-1.868-1.9-4.45-2.932-7.087-2.932-5.603 0-10.107 4.507-10.052 9.99 0 1.738.494 3.421 1.318 4.942L7.92 28.01l5.329-1.358c1.483.815 3.13 1.195 4.779 1.195 5.548 0 10.052-4.507 10.052-9.99a9.796 9.796 0 00-2.911-7.005zm-7.087 15.312c-1.483 0-2.966-.38-4.23-1.14l-.329-.163-3.186.814.824-3.095-.22-.326c-2.417-3.855-1.263-8.959 2.692-11.348 3.955-2.389 9.064-1.248 11.481 2.66 2.417 3.91 1.263 8.96-2.692 11.349-1.263.814-2.801 1.249-4.34 1.249zm4.835-6.027l-.605-.272s-.879-.38-1.428-.651c-.055 0-.11-.055-.165-.055a.8.8 0 00-.384.11s-.055.053-.824.922a.303.303 0 01-.275.163h-.055a.419.419 0 01-.22-.109l-.274-.108c-.605-.272-1.154-.598-1.593-1.032-.11-.108-.275-.217-.385-.326-.384-.38-.769-.814-1.043-1.303l-.055-.108c-.055-.055-.055-.109-.11-.217 0-.11 0-.218.055-.272 0 0 .22-.271.384-.434.11-.109.165-.272.275-.38.11-.163.165-.38.11-.543-.055-.272-.714-1.738-.88-2.064-.11-.163-.219-.217-.384-.271h-.604c-.11 0-.22.054-.33.054l-.055.054c-.11.055-.22.163-.33.218-.109.108-.164.217-.274.325a2.749 2.749 0 00-.604 1.684c0 .434.11.868.275 1.248l.055.163a9.049 9.049 0 002.032 2.77l.22.217c.165.162.33.271.44.434a9.855 9.855 0 003.954 2.063c.165.054.385.054.55.109h.549c.275 0 .604-.109.824-.217.165-.109.275-.109.384-.218l.11-.108c.11-.109.22-.163.33-.272.11-.108.22-.217.275-.325.11-.218.165-.49.22-.76v-.38s-.056-.055-.165-.11z" fill="#fff"/></g><defs><linearGradient id="paint0_linear_11_30" x1="18" y1="0" x2="18" y2="36" gradientUnits="userSpaceOnUse"><stop stop-color="#42E760"/><stop offset=".766" stop-color="#29CB4A"/></linearGradient><clipPath id="clip0_11_30"><path fill="#fff" d="M0 0h36v36H0z"/></clipPath></defs></svg>